<svg width="46" height="53" viewBox="0 0 46 53" fill="none" xmlns="http://www.w3.org/2000/svg">
<g clip-path="url(#clip0_16_197)">
<path d="M23.0103 14.5958C16.4799 14.5958 11.2125 19.9061 11.2125 26.4897C11.2125 33.0733 16.4799 38.3836 23.0103 38.3836C29.5406 38.3836 34.808 33.0733 34.808 26.4897C34.808 19.9061 29.5406 14.5958 23.0103 14.5958ZM23.0103 34.2223C18.7902 34.2223 15.3402 30.7545 15.3402 26.4897C15.3402 22.2249 18.7799 18.7571 23.0103 18.7571C27.2406 18.7571 30.6804 22.2249 30.6804 26.4897C30.6804 30.7545 27.2304 34.2223 23.0103 34.2223ZM38.0424 14.1092C38.0424 15.6516 36.8103 16.8834 35.2906 16.8834C33.7607 16.8834 32.5388 15.6413 32.5388 14.1092C32.5388 12.5772 33.771 11.335 35.2906 11.335C36.8103 11.335 38.0424 12.5772 38.0424 14.1092ZM45.8563 16.9249C45.6817 13.2086 44.8397 9.91685 42.1393 7.20474C39.4491 4.49263 36.1839 3.6438 32.4978 3.45747C28.6987 3.24009 17.3116 3.24009 13.5125 3.45747C9.83662 3.63345 6.57144 4.48228 3.87099 7.19438C1.17055 9.90649 0.33885 13.1983 0.154028 16.9145C-0.0615967 20.7446 -0.0615967 32.2245 0.154028 36.0545C0.328582 39.7707 1.17055 43.0625 3.87099 45.7747C6.57144 48.4868 9.82635 49.3356 13.5125 49.5219C17.3116 49.7393 28.6987 49.7393 32.4978 49.5219C36.1839 49.3459 39.4491 48.4971 42.1393 45.7747C44.8295 43.0625 45.6714 39.7707 45.8563 36.0545C46.0719 32.2245 46.0719 20.7549 45.8563 16.9249ZM40.9482 40.1641C40.1473 42.193 38.5969 43.7561 36.5741 44.5739C33.5451 45.785 26.3576 45.5055 23.0103 45.5055C19.663 45.5055 12.4652 45.7747 9.44644 44.5739C7.43394 43.7665 5.88349 42.2034 5.07233 40.1641C3.87099 37.1104 4.14822 29.8643 4.14822 26.4897C4.14822 23.1151 3.88126 15.8586 5.07233 12.8153C5.87322 10.7864 7.42367 9.22329 9.44644 8.40552C12.4755 7.19438 19.663 7.47388 23.0103 7.47388C26.3576 7.47388 33.5554 7.20474 36.5741 8.40552C38.5866 9.21294 40.1371 10.776 40.9482 12.8153C42.1496 15.869 41.8723 23.1151 41.8723 26.4897C41.8723 29.8643 42.1496 37.1208 40.9482 40.1641Z" fill="black"/>
</g>
<defs>
<clipPath id="clip0_16_197">
<rect width="46" height="53" fill="white"/>
</clipPath>
</defs>
</svg>
