<svg width="30" height="27" viewBox="0 0 30 27" fill="none" xmlns="http://www.w3.org/2000/svg">
<path d="M15.0256 0C6.72543 0 0 5.46497 0 12.2096C0 15.1205 1.25501 17.7879 3.34414 19.8817C2.61039 22.8396 0.15849 25.4741 0.12914 25.5034C0.000704406 25.6382 -0.0341047 25.84 0.04109 26.0161C0.118269 26.192 0.280927 26.2976 0.468004 26.2976C4.3604 26.2976 7.27721 24.4321 8.72123 23.281C10.6407 24.0025 12.7715 24.4192 15.0256 24.4192C23.3258 24.4192 30 18.9548 30 12.2096C30 5.46439 23.3258 0 15.0256 0ZM15.0256 23.48C12.9641 23.48 10.9542 23.117 9.04995 22.4011L8.551 22.2121L8.13394 22.5447C6.9482 23.4904 4.60372 25.0124 1.51844 25.3071C2.36607 24.2335 3.715 22.2735 4.2521 20.1069L4.3796 19.5928L4.00562 19.2176C2.00008 17.205 0.937604 14.7807 0.937604 12.2096C0.937604 5.99328 7.2596 0.939201 15.0256 0.939201C22.7916 0.939201 29.1136 5.99504 29.1136 12.2096C29.1136 18.4242 22.7916 23.48 15.0256 23.48Z" fill="black"/>
</svg>
