<svg width="30" height="26" viewBox="0 0 30 26" fill="none" xmlns="http://www.w3.org/2000/svg">
<path d="M15 4.02845L15.832 2.98549C17.584 0.735485 20.5137 -0.365491 23.3555 0.108532C27.1875 0.74779 30 4.06361 30 7.95424V8.6515C30 11.0831 28.9922 13.4093 27.2109 15.0675L16.623 24.9523C16.1836 25.3624 15.6035 25.591 15 25.591C14.3965 25.591 13.8164 25.3624 13.377 24.9523L2.78848 15.0675C1.00957 13.4093 0 11.0831 0 8.6515V7.95424C0 4.06361 2.81133 0.74779 6.64453 0.108532C9.48633 -0.365491 12.3633 0.734899 14.168 2.98549L15 4.02845ZM15 5.52845L13.4355 3.57142C11.8477 1.58627 9.31055 0.615368 6.80273 1.03314C3.41719 1.59681 0.9375 4.5265 0.9375 7.95424V8.6515C0.9375 10.7726 1.83926 12.8995 3.42832 14.382L14.0156 24.2667C14.2852 24.5128 14.6367 24.6535 15 24.6535C15.3633 24.6535 15.7148 24.5128 15.9844 24.2667L26.5723 14.382C28.1602 12.8995 29.0625 10.7726 29.0625 8.6515V7.95424C29.0625 4.5265 26.584 1.59681 23.1973 1.03314C20.6895 0.615368 18.1523 1.58627 16.5645 3.57142L15 5.52845Z" fill="black"/>
</svg>
