<svg width="30" height="27" viewBox="0 0 30 27" fill="none" xmlns="http://www.w3.org/2000/svg">
<path d="M28.8627 11.4549L2.61323 0.204488C2.37535 0.102537 2.12457 0 1.87614 0C1.37089 0 0.874203 0.205016 0.510929 0.588856C-0.0291953 1.21345 -0.153687 2.06246 0.197869 2.76616L5.62489 13.1775L0.198044 23.5894C-0.153511 24.2937 -0.029002 25.1421 0.511163 25.7145C0.873734 26.0981 1.37013 26.3034 1.8752 26.3034C2.12422 26.3034 2.37505 26.254 2.61288 26.1514L28.8627 14.9001C29.5529 14.6053 30 13.9269 30 13.1769C29.9467 12.4275 29.5541 11.7478 28.8627 11.4549ZM1.0365 2.34722C0.861313 1.99625 0.924007 1.56911 1.19177 1.28611C1.3699 1.09803 1.61892 0.937482 1.87614 0.937482C2.00258 0.937482 2.12586 0.962887 2.24357 1.01359L28.4931 12.2634C28.6813 12.3438 28.8214 12.4864 28.9205 12.6555H6.43933L1.0365 2.34722ZM28.4936 14.0388L2.24234 25.2886C2.12609 25.3387 2.00258 25.3641 1.87532 25.3641C1.61874 25.3641 1.36984 25.2565 1.19271 25.0693C0.924124 24.7848 0.86143 24.358 1.0293 24.0217L6.43933 13.6462H28.9213C28.8217 13.8161 28.6811 13.9568 28.4936 14.0388Z" fill="black"/>
</svg>
