<svg width="111" height="111" viewBox="0 0 111 111" fill="none" xmlns="http://www.w3.org/2000/svg">
<circle cx="55.5" cy="55.5" r="55.5" fill="#A8DADC"/>
<path d="M71 42C73.2062 42 75 43.7906 75 46V60C75 62.2062 73.2062 64 71 64H45C42.7938 64 41 62.2062 41 60V46C41 43.7906 42.7938 42 45 42H71ZM58 58C60.7625 58 63 55.7625 63 53C63 50.2375 60.7625 48 58 48C55.2375 48 53 50.2375 53 53C53 55.7625 55.2375 58 58 58Z" fill="#457B9D"/>
<path opacity="0.4" d="M38 62.5C38 64.9875 40.015 67 42.5 67H67.5C68.3312 67 69 67.6688 69 68.5C69 69.3312 68.3312 70 67.5 70H42.5C38.3581 70 35 66.6437 35 62.5V47.5C35 46.6687 35.6719 46 36.5 46C37.3281 46 38 46.6687 38 47.5V62.5ZM53 53C53 50.2375 55.2375 48 58 48C60.7625 48 63 50.2375 63 53C63 55.7625 60.7625 58 58 58C55.2375 58 53 55.7625 53 53Z" fill="#457B9D"/>
</svg>
