<svg width="494" height="339" viewBox="0 0 494 339" fill="none" xmlns="http://www.w3.org/2000/svg">
<path d="M62.8125 207.763V143.812C62.8125 140.377 59.9663 137.531 56.5312 137.531C53.0962 137.531 50.25 140.397 50.25 143.812V207.763C42.948 210.354 37.6875 217.264 37.6875 225.469C37.6875 235.872 46.1279 244.312 56.5312 244.312C66.9346 244.312 75.375 235.872 75.375 225.469C75.375 217.264 70.1145 210.354 62.8125 207.763ZM138.188 118.688H188.438C195.374 118.688 201 113.062 201 106.125C201 99.1881 195.374 93.5625 188.438 93.5625H138.188C131.251 93.5625 125.625 99.1881 125.625 106.125C125.625 113.062 131.239 118.688 138.188 118.688ZM188.438 143.812H138.188C131.251 143.812 125.625 149.438 125.625 156.375C125.625 163.312 131.251 168.938 138.188 168.938H188.438C195.374 168.938 201 163.312 201 156.375C201 149.438 195.386 143.812 188.438 143.812ZM188.438 194.062H150.75C143.813 194.062 138.188 199.688 138.188 206.625C138.188 213.562 143.813 219.188 150.75 219.188H188.438C195.374 219.188 201 213.562 201 206.625C201 199.688 195.386 194.062 188.438 194.062Z" fill="#A8DADC"/>
<path opacity="0.4" d="M100.5 190.333V124.969C100.5 100.68 80.8201 81 56.5312 81C32.2424 81 12.5625 100.68 12.5625 124.969V190.333C4.80908 200.049 0 212.121 0 225.469C0 256.679 25.3213 281.647 56.5312 281.647C87.7412 281.647 113.062 256.325 113.062 225.469C113.062 212.121 108.273 199.99 100.5 190.333ZM56.5312 256.875C39.2068 256.875 25.125 242.793 25.125 225.822C25.125 215.811 29.9341 206.633 37.6875 200.795V125.302C37.6875 114.899 46.1279 106.459 56.5312 106.459C66.9346 106.459 75.375 114.899 75.375 125.302V200.795C83.1284 206.586 87.9375 215.811 87.9375 225.822C87.9375 242.781 73.8439 256.875 56.5312 256.875Z" fill="#A8DADC"/>
<path d="M281.805 28.6836C281.805 33.4883 280.626 37.1406 278.27 39.6406C275.913 42.1406 272.462 43.3906 267.918 43.3906C263.439 43.3906 260.001 42.1341 257.605 39.6211C255.223 37.1081 254.031 33.4492 254.031 28.6445C254.031 23.8919 255.216 20.2656 257.586 17.7656C259.969 15.2526 263.426 13.9961 267.957 13.9961C272.501 13.9961 275.945 15.2396 278.289 17.7266C280.633 20.2135 281.805 23.8659 281.805 28.6836ZM262.156 28.6836C262.156 34.2044 264.077 36.9648 267.918 36.9648C269.871 36.9648 271.316 36.2943 272.254 34.9531C273.204 33.612 273.68 31.5221 273.68 28.6836C273.68 25.832 273.198 23.7292 272.234 22.375C271.284 21.0078 269.858 20.3242 267.957 20.3242C264.09 20.3242 262.156 23.1107 262.156 28.6836ZM311.238 14.4453V31.6328C311.238 35.3698 310.177 38.2669 308.055 40.3242C305.945 42.3685 302.898 43.3906 298.914 43.3906C295.021 43.3906 292.026 42.3945 289.93 40.4023C287.846 38.4102 286.805 35.5456 286.805 31.8086V14.4453H294.559V31.2031C294.559 33.2214 294.936 34.6862 295.691 35.5977C296.447 36.5091 297.56 36.9648 299.031 36.9648C300.607 36.9648 301.746 36.5156 302.449 35.6172C303.165 34.7057 303.523 33.2214 303.523 31.1641V14.4453H311.238ZM324.949 32.6094V43H317.234V14.4453H326.59C334.35 14.4453 338.23 17.2578 338.23 22.8828C338.23 26.1901 336.616 28.7487 333.387 30.5586L341.707 43H332.957L326.902 32.6094H324.949ZM324.949 26.8086H326.395C329.09 26.8086 330.438 25.6172 330.438 23.2344C330.438 21.2682 329.116 20.2852 326.473 20.2852H324.949V26.8086ZM366.16 26.2812H378.484V41.6719C375.138 42.8177 371.46 43.3906 367.449 43.3906C363.048 43.3906 359.643 42.1146 357.234 39.5625C354.839 37.0104 353.641 33.3711 353.641 28.6445C353.641 24.0352 354.956 20.4479 357.586 17.8828C360.216 15.3177 363.901 14.0352 368.641 14.0352C370.438 14.0352 372.13 14.2044 373.719 14.543C375.32 14.8815 376.714 15.3112 377.898 15.832L375.457 21.8867C373.4 20.8711 371.141 20.3633 368.68 20.3633C366.427 20.3633 364.682 21.099 363.445 22.5703C362.221 24.0286 361.609 26.1185 361.609 28.8398C361.609 31.5091 362.163 33.5469 363.27 34.9531C364.389 36.3464 365.997 37.043 368.094 37.043C369.24 37.043 370.294 36.9323 371.258 36.7109V32.2383H366.16V26.2812ZM411.023 28.6836C411.023 33.4883 409.845 37.1406 407.488 39.6406C405.132 42.1406 401.681 43.3906 397.137 43.3906C392.658 43.3906 389.22 42.1341 386.824 39.6211C384.441 37.1081 383.25 33.4492 383.25 28.6445C383.25 23.8919 384.435 20.2656 386.805 17.7656C389.188 15.2526 392.645 13.9961 397.176 13.9961C401.72 13.9961 405.164 15.2396 407.508 17.7266C409.852 20.2135 411.023 23.8659 411.023 28.6836ZM391.375 28.6836C391.375 34.2044 393.296 36.9648 397.137 36.9648C399.09 36.9648 400.535 36.2943 401.473 34.9531C402.423 33.612 402.898 31.5221 402.898 28.6836C402.898 25.832 402.417 23.7292 401.453 22.375C400.503 21.0078 399.077 20.3242 397.176 20.3242C393.309 20.3242 391.375 23.1107 391.375 28.6836ZM433.699 43L432.293 37.6484H423.016L421.57 43H413.094L422.41 14.3281H432.703L442.137 43H433.699ZM430.691 31.3203L429.461 26.6328C429.174 25.5911 428.823 24.2435 428.406 22.5898C428.003 20.9362 427.736 19.7513 427.605 19.0352C427.488 19.6992 427.254 20.793 426.902 22.3164C426.564 23.8398 425.802 26.8411 424.617 31.3203H430.691ZM445.242 43V14.4453H452.957V36.7695H463.953V43H445.242Z" fill="#A8DADC"/>
<path d="M300.234 87.2305C300.234 89.0013 299.57 90.4661 298.242 91.625C296.914 92.7708 295.059 93.4935 292.676 93.793V98.3242H290.156V93.9688C288.698 93.9688 287.285 93.8581 285.918 93.6367C284.551 93.4023 283.431 93.0833 282.559 92.6797V89.6328C283.639 90.1146 284.883 90.5117 286.289 90.8242C287.708 91.1237 288.997 91.2734 290.156 91.2734V82.6797C287.487 81.8333 285.612 80.8503 284.531 79.7305C283.464 78.6107 282.93 77.1654 282.93 75.3945C282.93 73.6888 283.587 72.2891 284.902 71.1953C286.23 70.1016 287.982 69.4375 290.156 69.2031V65.6484H292.676V69.1641C295.072 69.2292 297.383 69.7109 299.609 70.6094L298.594 73.168C296.654 72.3997 294.681 71.944 292.676 71.8008V80.2773C294.72 80.9284 296.25 81.5664 297.266 82.1914C298.281 82.8034 299.03 83.513 299.512 84.3203C299.993 85.1146 300.234 86.0846 300.234 87.2305ZM296.914 87.4844C296.914 86.5469 296.621 85.7917 296.035 85.2188C295.462 84.6328 294.342 84.0534 292.676 83.4805V91.0781C295.501 90.6875 296.914 89.4896 296.914 87.4844ZM286.23 75.3555C286.23 76.3451 286.523 77.1393 287.109 77.7383C287.695 78.3372 288.711 78.9036 290.156 79.4375V71.8789C288.867 72.0872 287.891 72.4974 287.227 73.1094C286.562 73.7083 286.23 74.457 286.23 75.3555ZM316.855 96H313.691V75.6484C313.691 73.9557 313.743 72.3542 313.848 70.8438C313.574 71.1172 313.268 71.4036 312.93 71.7031C312.591 72.0026 311.042 73.2721 308.281 75.5117L306.562 73.2852L314.121 67.4453H316.855V96ZM332.617 91.3516L332.91 91.8008C332.572 93.1029 332.083 94.6133 331.445 96.332C330.807 98.0638 330.143 99.6719 329.453 101.156H327.012C327.363 99.8021 327.747 98.1289 328.164 96.1367C328.594 94.1445 328.893 92.5495 329.062 91.3516H332.617ZM356.465 81.6836C356.465 86.6185 355.684 90.3034 354.121 92.7383C352.572 95.1732 350.195 96.3906 346.992 96.3906C343.919 96.3906 341.582 95.1471 339.98 92.6602C338.379 90.1602 337.578 86.5013 337.578 81.6836C337.578 76.7096 338.353 73.0182 339.902 70.6094C341.452 68.2005 343.815 66.9961 346.992 66.9961C350.091 66.9961 352.441 68.2526 354.043 70.7656C355.658 73.2786 356.465 76.918 356.465 81.6836ZM340.859 81.6836C340.859 85.8372 341.348 88.8646 342.324 90.7656C343.301 92.6536 344.857 93.5977 346.992 93.5977C349.154 93.5977 350.716 92.6406 351.68 90.7266C352.656 88.7995 353.145 85.7852 353.145 81.6836C353.145 77.582 352.656 74.5807 351.68 72.6797C350.716 70.7656 349.154 69.8086 346.992 69.8086C344.857 69.8086 343.301 70.7526 342.324 72.6406C341.348 74.5156 340.859 77.5299 340.859 81.6836ZM379.355 81.6836C379.355 86.6185 378.574 90.3034 377.012 92.7383C375.462 95.1732 373.086 96.3906 369.883 96.3906C366.81 96.3906 364.473 95.1471 362.871 92.6602C361.27 90.1602 360.469 86.5013 360.469 81.6836C360.469 76.7096 361.243 73.0182 362.793 70.6094C364.342 68.2005 366.706 66.9961 369.883 66.9961C372.982 66.9961 375.332 68.2526 376.934 70.7656C378.548 73.2786 379.355 76.918 379.355 81.6836ZM363.75 81.6836C363.75 85.8372 364.238 88.8646 365.215 90.7656C366.191 92.6536 367.747 93.5977 369.883 93.5977C372.044 93.5977 373.607 92.6406 374.57 90.7266C375.547 88.7995 376.035 85.7852 376.035 81.6836C376.035 77.582 375.547 74.5807 374.57 72.6797C373.607 70.7656 372.044 69.8086 369.883 69.8086C367.747 69.8086 366.191 70.7526 365.215 72.6406C364.238 74.5156 363.75 77.5299 363.75 81.6836ZM402.246 81.6836C402.246 86.6185 401.465 90.3034 399.902 92.7383C398.353 95.1732 395.977 96.3906 392.773 96.3906C389.701 96.3906 387.363 95.1471 385.762 92.6602C384.16 90.1602 383.359 86.5013 383.359 81.6836C383.359 76.7096 384.134 73.0182 385.684 70.6094C387.233 68.2005 389.596 66.9961 392.773 66.9961C395.872 66.9961 398.223 68.2526 399.824 70.7656C401.439 73.2786 402.246 76.918 402.246 81.6836ZM386.641 81.6836C386.641 85.8372 387.129 88.8646 388.105 90.7656C389.082 92.6536 390.638 93.5977 392.773 93.5977C394.935 93.5977 396.497 92.6406 397.461 90.7266C398.438 88.7995 398.926 85.7852 398.926 81.6836C398.926 77.582 398.438 74.5807 397.461 72.6797C396.497 70.7656 394.935 69.8086 392.773 69.8086C390.638 69.8086 389.082 70.7526 388.105 72.6406C387.129 74.5156 386.641 77.5299 386.641 81.6836ZM411.094 91.3516L411.387 91.8008C411.048 93.1029 410.56 94.6133 409.922 96.332C409.284 98.0638 408.62 99.6719 407.93 101.156H405.488C405.84 99.8021 406.224 98.1289 406.641 96.1367C407.07 94.1445 407.37 92.5495 407.539 91.3516H411.094ZM434.941 81.6836C434.941 86.6185 434.16 90.3034 432.598 92.7383C431.048 95.1732 428.672 96.3906 425.469 96.3906C422.396 96.3906 420.059 95.1471 418.457 92.6602C416.855 90.1602 416.055 86.5013 416.055 81.6836C416.055 76.7096 416.829 73.0182 418.379 70.6094C419.928 68.2005 422.292 66.9961 425.469 66.9961C428.568 66.9961 430.918 68.2526 432.52 70.7656C434.134 73.2786 434.941 76.918 434.941 81.6836ZM419.336 81.6836C419.336 85.8372 419.824 88.8646 420.801 90.7656C421.777 92.6536 423.333 93.5977 425.469 93.5977C427.63 93.5977 429.193 92.6406 430.156 90.7266C431.133 88.7995 431.621 85.7852 431.621 81.6836C431.621 77.582 431.133 74.5807 430.156 72.6797C429.193 70.7656 427.63 69.8086 425.469 69.8086C423.333 69.8086 421.777 70.7526 420.801 72.6406C419.824 74.5156 419.336 77.5299 419.336 81.6836ZM457.832 81.6836C457.832 86.6185 457.051 90.3034 455.488 92.7383C453.939 95.1732 451.562 96.3906 448.359 96.3906C445.286 96.3906 442.949 95.1471 441.348 92.6602C439.746 90.1602 438.945 86.5013 438.945 81.6836C438.945 76.7096 439.72 73.0182 441.27 70.6094C442.819 68.2005 445.182 66.9961 448.359 66.9961C451.458 66.9961 453.809 68.2526 455.41 70.7656C457.025 73.2786 457.832 76.918 457.832 81.6836ZM442.227 81.6836C442.227 85.8372 442.715 88.8646 443.691 90.7656C444.668 92.6536 446.224 93.5977 448.359 93.5977C450.521 93.5977 452.083 92.6406 453.047 90.7266C454.023 88.7995 454.512 85.7852 454.512 81.6836C454.512 77.582 454.023 74.5807 453.047 72.6797C452.083 70.7656 450.521 69.8086 448.359 69.8086C446.224 69.8086 444.668 70.7526 443.691 72.6406C442.715 74.5156 442.227 77.5299 442.227 81.6836ZM480.723 81.6836C480.723 86.6185 479.941 90.3034 478.379 92.7383C476.829 95.1732 474.453 96.3906 471.25 96.3906C468.177 96.3906 465.84 95.1471 464.238 92.6602C462.637 90.1602 461.836 86.5013 461.836 81.6836C461.836 76.7096 462.611 73.0182 464.16 70.6094C465.71 68.2005 468.073 66.9961 471.25 66.9961C474.349 66.9961 476.699 68.2526 478.301 70.7656C479.915 73.2786 480.723 76.918 480.723 81.6836ZM465.117 81.6836C465.117 85.8372 465.605 88.8646 466.582 90.7656C467.559 92.6536 469.115 93.5977 471.25 93.5977C473.411 93.5977 474.974 92.6406 475.938 90.7266C476.914 88.7995 477.402 85.7852 477.402 81.6836C477.402 77.582 476.914 74.5807 475.938 72.6797C474.974 70.7656 473.411 69.8086 471.25 69.8086C469.115 69.8086 467.559 70.7526 466.582 72.6406C465.605 74.5156 465.117 77.5299 465.117 81.6836Z" fill="#1D3557"/>
<path d="M305.952 175.94C305.952 178.3 305.09 180.245 303.364 181.775C301.639 183.305 299.149 184.249 295.894 184.607V189.905H292.646V184.754C288.61 184.689 285.298 184.07 282.71 182.898V177.747C284.11 178.431 285.745 179.008 287.617 179.48C289.489 179.936 291.165 180.172 292.646 180.188V171.058L290.596 170.301C287.926 169.275 285.973 168.055 284.736 166.639C283.516 165.206 282.905 163.44 282.905 161.341C282.905 159.095 283.776 157.247 285.518 155.799C287.275 154.35 289.652 153.471 292.646 153.162V149.061H295.894V153.089C299.198 153.203 302.331 153.87 305.293 155.091L303.511 159.559C300.955 158.549 298.416 157.947 295.894 157.752V166.639L297.749 167.347C300.841 168.535 302.982 169.788 304.17 171.106C305.358 172.425 305.952 174.036 305.952 175.94ZM300.19 176.307C300.19 175.363 299.857 174.59 299.189 173.987C298.538 173.369 297.44 172.775 295.894 172.205V179.993C298.758 179.554 300.19 178.325 300.19 176.307ZM288.643 161.292C288.643 162.22 288.927 162.993 289.497 163.611C290.083 164.23 291.133 164.84 292.646 165.442V157.85C291.344 158.045 290.352 158.444 289.668 159.046C288.984 159.648 288.643 160.397 288.643 161.292ZM310.859 171.79C310.859 157.825 316.548 150.843 327.925 150.843C329.715 150.843 331.229 150.981 332.466 151.258V156.043C331.229 155.685 329.797 155.506 328.169 155.506C324.344 155.506 321.471 156.531 319.551 158.582C317.63 160.633 316.589 163.921 316.426 168.445H316.719C317.484 167.127 318.558 166.11 319.941 165.394C321.325 164.661 322.952 164.295 324.824 164.295C328.063 164.295 330.586 165.288 332.393 167.273C334.199 169.259 335.103 171.953 335.103 175.354C335.103 179.098 334.053 182.06 331.953 184.241C329.87 186.406 327.021 187.488 323.408 187.488C320.853 187.488 318.631 186.878 316.743 185.657C314.855 184.42 313.398 182.63 312.373 180.286C311.364 177.926 310.859 175.094 310.859 171.79ZM323.311 182.752C325.28 182.752 326.794 182.117 327.852 180.848C328.926 179.578 329.463 177.763 329.463 175.403C329.463 173.353 328.958 171.741 327.949 170.569C326.956 169.397 325.459 168.812 323.457 168.812C322.22 168.812 321.081 169.08 320.039 169.617C318.997 170.138 318.175 170.862 317.573 171.79C316.971 172.701 316.67 173.637 316.67 174.598C316.67 176.893 317.288 178.829 318.525 180.408C319.779 181.971 321.374 182.752 323.311 182.752ZM356.172 187H350.435V163.953C350.435 161.202 350.5 159.021 350.63 157.41C350.256 157.801 349.792 158.232 349.238 158.704C348.701 159.176 346.878 160.674 343.77 163.196L340.889 159.559L351.387 151.307H356.172V187ZM390.742 159.51C390.742 161.772 390.083 163.66 388.765 165.174C387.446 166.671 385.591 167.68 383.198 168.201V168.396C386.063 168.755 388.211 169.65 389.644 171.082C391.076 172.498 391.792 174.386 391.792 176.746C391.792 180.18 390.579 182.833 388.154 184.705C385.729 186.561 382.279 187.488 377.803 187.488C373.848 187.488 370.511 186.845 367.793 185.56V180.457C369.307 181.206 370.91 181.784 372.603 182.19C374.295 182.597 375.923 182.801 377.485 182.801C380.252 182.801 382.319 182.288 383.687 181.263C385.054 180.237 385.737 178.65 385.737 176.502C385.737 174.598 384.98 173.198 383.467 172.303C381.953 171.408 379.577 170.96 376.338 170.96H373.237V166.297H376.387C382.083 166.297 384.932 164.327 384.932 160.389C384.932 158.859 384.435 157.679 383.442 156.849C382.45 156.019 380.985 155.604 379.048 155.604C377.697 155.604 376.395 155.799 375.142 156.189C373.888 156.564 372.407 157.304 370.698 158.411L367.891 154.407C371.162 151.998 374.963 150.794 379.292 150.794C382.889 150.794 385.697 151.567 387.715 153.113C389.733 154.66 390.742 156.792 390.742 159.51ZM404.316 181.751C403.535 184.778 402.103 188.676 400.02 193.445H395.796C396.919 189.051 397.757 184.965 398.311 181.189H403.95L404.316 181.751ZM434.028 169.153C434.028 175.354 433.027 179.961 431.025 182.972C429.04 185.983 425.996 187.488 421.895 187.488C417.923 187.488 414.912 185.934 412.861 182.825C410.811 179.716 409.785 175.159 409.785 169.153C409.785 162.854 410.778 158.216 412.764 155.237C414.766 152.243 417.809 150.745 421.895 150.745C425.882 150.745 428.901 152.308 430.952 155.433C433.003 158.558 434.028 163.131 434.028 169.153ZM415.596 169.153C415.596 174.02 416.092 177.495 417.085 179.578C418.094 181.661 419.697 182.703 421.895 182.703C424.092 182.703 425.695 181.645 426.704 179.529C427.729 177.413 428.242 173.955 428.242 169.153C428.242 164.368 427.729 160.91 426.704 158.777C425.695 156.629 424.092 155.555 421.895 155.555C419.697 155.555 418.094 156.604 417.085 158.704C416.092 160.804 415.596 164.287 415.596 169.153ZM462.593 169.153C462.593 175.354 461.592 179.961 459.59 182.972C457.604 185.983 454.561 187.488 450.459 187.488C446.488 187.488 443.477 185.934 441.426 182.825C439.375 179.716 438.35 175.159 438.35 169.153C438.35 162.854 439.342 158.216 441.328 155.237C443.33 152.243 446.374 150.745 450.459 150.745C454.447 150.745 457.466 152.308 459.517 155.433C461.567 158.558 462.593 163.131 462.593 169.153ZM444.16 169.153C444.16 174.02 444.657 177.495 445.649 179.578C446.659 181.661 448.262 182.703 450.459 182.703C452.656 182.703 454.259 181.645 455.269 179.529C456.294 177.413 456.807 173.955 456.807 169.153C456.807 164.368 456.294 160.91 455.269 158.777C454.259 156.629 452.656 155.555 450.459 155.555C448.262 155.555 446.659 156.604 445.649 158.704C444.657 160.804 444.16 164.287 444.16 169.153ZM491.157 169.153C491.157 175.354 490.156 179.961 488.154 182.972C486.169 185.983 483.125 187.488 479.023 187.488C475.052 187.488 472.041 185.934 469.99 182.825C467.939 179.716 466.914 175.159 466.914 169.153C466.914 162.854 467.907 158.216 469.893 155.237C471.895 152.243 474.938 150.745 479.023 150.745C483.011 150.745 486.03 152.308 488.081 155.433C490.132 158.558 491.157 163.131 491.157 169.153ZM472.725 169.153C472.725 174.02 473.221 177.495 474.214 179.578C475.223 181.661 476.826 182.703 479.023 182.703C481.221 182.703 482.824 181.645 483.833 179.529C484.858 177.413 485.371 173.955 485.371 169.153C485.371 164.368 484.858 160.91 483.833 158.777C482.824 156.629 481.221 155.555 479.023 155.555C476.826 155.555 475.223 156.604 474.214 158.704C473.221 160.804 472.725 164.287 472.725 169.153Z" fill="#F1FAEE"/>
<path d="M300.234 319.23C300.234 321.001 299.57 322.466 298.242 323.625C296.914 324.771 295.059 325.493 292.676 325.793V330.324H290.156V325.969C288.698 325.969 287.285 325.858 285.918 325.637C284.551 325.402 283.431 325.083 282.559 324.68V321.633C283.639 322.115 284.883 322.512 286.289 322.824C287.708 323.124 288.997 323.273 290.156 323.273V314.68C287.487 313.833 285.612 312.85 284.531 311.73C283.464 310.611 282.93 309.165 282.93 307.395C282.93 305.689 283.587 304.289 284.902 303.195C286.23 302.102 287.982 301.438 290.156 301.203V297.648H292.676V301.164C295.072 301.229 297.383 301.711 299.609 302.609L298.594 305.168C296.654 304.4 294.681 303.944 292.676 303.801V312.277C294.72 312.928 296.25 313.566 297.266 314.191C298.281 314.803 299.03 315.513 299.512 316.32C299.993 317.115 300.234 318.085 300.234 319.23ZM296.914 319.484C296.914 318.547 296.621 317.792 296.035 317.219C295.462 316.633 294.342 316.053 292.676 315.48V323.078C295.501 322.688 296.914 321.49 296.914 319.484ZM286.23 307.355C286.23 308.345 286.523 309.139 287.109 309.738C287.695 310.337 288.711 310.904 290.156 311.438V303.879C288.867 304.087 287.891 304.497 287.227 305.109C286.562 305.708 286.23 306.457 286.23 307.355ZM316.855 328H313.691V307.648C313.691 305.956 313.743 304.354 313.848 302.844C313.574 303.117 313.268 303.404 312.93 303.703C312.591 304.003 311.042 305.272 308.281 307.512L306.562 305.285L314.121 299.445H316.855V328ZM346.66 313.684C346.66 318.618 345.879 322.303 344.316 324.738C342.767 327.173 340.391 328.391 337.188 328.391C334.115 328.391 331.777 327.147 330.176 324.66C328.574 322.16 327.773 318.501 327.773 313.684C327.773 308.71 328.548 305.018 330.098 302.609C331.647 300.201 334.01 298.996 337.188 298.996C340.286 298.996 342.637 300.253 344.238 302.766C345.853 305.279 346.66 308.918 346.66 313.684ZM331.055 313.684C331.055 317.837 331.543 320.865 332.52 322.766C333.496 324.654 335.052 325.598 337.188 325.598C339.349 325.598 340.911 324.641 341.875 322.727C342.852 320.799 343.34 317.785 343.34 313.684C343.34 309.582 342.852 306.581 341.875 304.68C340.911 302.766 339.349 301.809 337.188 301.809C335.052 301.809 333.496 302.753 332.52 304.641C331.543 306.516 331.055 309.53 331.055 313.684ZM369.551 313.684C369.551 318.618 368.77 322.303 367.207 324.738C365.658 327.173 363.281 328.391 360.078 328.391C357.005 328.391 354.668 327.147 353.066 324.66C351.465 322.16 350.664 318.501 350.664 313.684C350.664 308.71 351.439 305.018 352.988 302.609C354.538 300.201 356.901 298.996 360.078 298.996C363.177 298.996 365.527 300.253 367.129 302.766C368.743 305.279 369.551 308.918 369.551 313.684ZM353.945 313.684C353.945 317.837 354.434 320.865 355.41 322.766C356.387 324.654 357.943 325.598 360.078 325.598C362.24 325.598 363.802 324.641 364.766 322.727C365.742 320.799 366.23 317.785 366.23 313.684C366.23 309.582 365.742 306.581 364.766 304.68C363.802 302.766 362.24 301.809 360.078 301.809C357.943 301.809 356.387 302.753 355.41 304.641C354.434 306.516 353.945 309.53 353.945 313.684ZM378.398 323.352L378.691 323.801C378.353 325.103 377.865 326.613 377.227 328.332C376.589 330.064 375.924 331.672 375.234 333.156H372.793C373.145 331.802 373.529 330.129 373.945 328.137C374.375 326.145 374.674 324.549 374.844 323.352H378.398ZM402.246 313.684C402.246 318.618 401.465 322.303 399.902 324.738C398.353 327.173 395.977 328.391 392.773 328.391C389.701 328.391 387.363 327.147 385.762 324.66C384.16 322.16 383.359 318.501 383.359 313.684C383.359 308.71 384.134 305.018 385.684 302.609C387.233 300.201 389.596 298.996 392.773 298.996C395.872 298.996 398.223 300.253 399.824 302.766C401.439 305.279 402.246 308.918 402.246 313.684ZM386.641 313.684C386.641 317.837 387.129 320.865 388.105 322.766C389.082 324.654 390.638 325.598 392.773 325.598C394.935 325.598 396.497 324.641 397.461 322.727C398.438 320.799 398.926 317.785 398.926 313.684C398.926 309.582 398.438 306.581 397.461 304.68C396.497 302.766 394.935 301.809 392.773 301.809C390.638 301.809 389.082 302.753 388.105 304.641C387.129 306.516 386.641 309.53 386.641 313.684ZM425.137 313.684C425.137 318.618 424.355 322.303 422.793 324.738C421.243 327.173 418.867 328.391 415.664 328.391C412.591 328.391 410.254 327.147 408.652 324.66C407.051 322.16 406.25 318.501 406.25 313.684C406.25 308.71 407.025 305.018 408.574 302.609C410.124 300.201 412.487 298.996 415.664 298.996C418.763 298.996 421.113 300.253 422.715 302.766C424.329 305.279 425.137 308.918 425.137 313.684ZM409.531 313.684C409.531 317.837 410.02 320.865 410.996 322.766C411.973 324.654 413.529 325.598 415.664 325.598C417.826 325.598 419.388 324.641 420.352 322.727C421.328 320.799 421.816 317.785 421.816 313.684C421.816 309.582 421.328 306.581 420.352 304.68C419.388 302.766 417.826 301.809 415.664 301.809C413.529 301.809 411.973 302.753 410.996 304.641C410.02 306.516 409.531 309.53 409.531 313.684ZM448.027 313.684C448.027 318.618 447.246 322.303 445.684 324.738C444.134 327.173 441.758 328.391 438.555 328.391C435.482 328.391 433.145 327.147 431.543 324.66C429.941 322.16 429.141 318.501 429.141 313.684C429.141 308.71 429.915 305.018 431.465 302.609C433.014 300.201 435.378 298.996 438.555 298.996C441.654 298.996 444.004 300.253 445.605 302.766C447.22 305.279 448.027 308.918 448.027 313.684ZM432.422 313.684C432.422 317.837 432.91 320.865 433.887 322.766C434.863 324.654 436.419 325.598 438.555 325.598C440.716 325.598 442.279 324.641 443.242 322.727C444.219 320.799 444.707 317.785 444.707 313.684C444.707 309.582 444.219 306.581 443.242 304.68C442.279 302.766 440.716 301.809 438.555 301.809C436.419 301.809 434.863 302.753 433.887 304.641C432.91 306.516 432.422 309.53 432.422 313.684Z" fill="#1D3557"/>
<line x1="259" y1="81" x2="259" y2="312" stroke="#6DA1B6" stroke-width="4"/>
<circle cx="259" cy="80" r="7" fill="#1D3557"/>
<circle cx="259" cy="168" r="7" fill="#F1FAEE"/>
<circle cx="259" cy="312" r="7" fill="#1D3557"/>
<path d="M245 164.493V164.162C245 160.171 247.861 156.767 251.763 156.111C254.295 155.678 256.974 156.526 258.82 158.391L259.5 159.075L260.129 158.391C262.026 156.526 264.654 155.678 267.237 156.111C271.14 156.767 274 160.171 274 164.162V164.493C274 166.863 273.026 169.129 271.304 170.745L261.069 180.378C260.644 180.777 260.083 181 259.5 181C258.917 181 258.356 180.777 257.931 180.378L247.696 170.745C245.976 169.129 245 166.863 245 164.493H245Z" fill="#F1FAEE"/>
</svg>
