<svg width="422" height="361" viewBox="0 0 422 361" fill="none" xmlns="http://www.w3.org/2000/svg">
<path d="M0 122.641V117.859C0 60.2269 41.6395 11.0709 98.4117 1.60583C135.254 -4.65203 174.24 7.59985 201.109 34.5194L211 44.3967L220.149 34.5194C247.76 7.59985 286.004 -4.65203 323.588 1.60583C380.377 11.0709 422 60.2269 422 117.859V122.641C422 156.857 407.823 189.589 382.767 212.922L233.831 352.013C227.649 357.785 219.489 361 211 361C202.511 361 194.351 357.785 188.169 352.013L39.2246 212.922C14.2013 189.589 0.000247266 156.857 0.000247266 122.641H0Z" fill="#A8DADC"/>
<path d="M86.15 213C84.15 213 82.4 212.25 80.9 210.75C79.4 209.25 78.65 207.45 78.65 205.35V113.85L67.7 118.5C66 119.2 64.4 119.55 62.9 119.55C60.7 119.55 58.85 118.85 57.35 117.45C55.95 116.05 55.25 114.25 55.25 112.05C55.25 110.45 55.65 109 56.45 107.7C57.25 106.4 58.5 105.45 60.2 104.85L83.6 96.45C84.1 96.25 84.6 96.1 85.1 96C85.6 95.9 86.05 95.85 86.45 95.85C88.75 95.85 90.55 96.6 91.85 98.1C93.25 99.5 93.95 101.35 93.95 103.65V205.35C93.95 207.45 93.2 209.25 91.7 210.75C90.2 212.25 88.35 213 86.15 213ZM152.237 213C144.637 213 138.137 210.7 132.737 206.1C127.437 201.4 123.387 194.7 120.587 186C117.787 177.2 116.387 166.65 116.387 154.35C116.387 142.05 117.787 131.55 120.587 122.85C123.387 114.05 127.437 107.35 132.737 102.75C138.137 98.05 144.637 95.7 152.237 95.7C159.837 95.7 166.287 98.1 171.587 102.9C176.987 107.6 181.087 114.35 183.887 123.15C186.687 131.85 188.087 142.25 188.087 154.35C188.087 166.45 186.687 176.9 183.887 185.7C181.087 194.4 176.987 201.15 171.587 205.95C166.287 210.65 159.837 213 152.237 213ZM152.237 197.4C156.837 197.4 160.637 195.55 163.637 191.85C166.637 188.05 168.887 182.9 170.387 176.4C171.887 169.9 172.637 162.55 172.637 154.35C172.637 146.15 171.887 138.8 170.387 132.3C168.887 125.8 166.637 120.65 163.637 116.85C160.637 113.05 156.837 111.15 152.237 111.15C147.637 111.15 143.837 113.05 140.837 116.85C137.837 120.55 135.587 125.65 134.087 132.15C132.587 138.65 131.837 146.05 131.837 154.35C131.837 162.65 132.587 170.05 134.087 176.55C135.587 183.05 137.837 188.15 140.837 191.85C143.937 195.55 147.737 197.4 152.237 197.4ZM238.955 213C231.355 213 224.855 210.7 219.455 206.1C214.155 201.4 210.105 194.7 207.305 186C204.505 177.2 203.105 166.65 203.105 154.35C203.105 142.05 204.505 131.55 207.305 122.85C210.105 114.05 214.155 107.35 219.455 102.75C224.855 98.05 231.355 95.7 238.955 95.7C246.555 95.7 253.005 98.1 258.305 102.9C263.705 107.6 267.805 114.35 270.605 123.15C273.405 131.85 274.805 142.25 274.805 154.35C274.805 166.45 273.405 176.9 270.605 185.7C267.805 194.4 263.705 201.15 258.305 205.95C253.005 210.65 246.555 213 238.955 213ZM238.955 197.4C243.555 197.4 247.355 195.55 250.355 191.85C253.355 188.05 255.605 182.9 257.105 176.4C258.605 169.9 259.355 162.55 259.355 154.35C259.355 146.15 258.605 138.8 257.105 132.3C255.605 125.8 253.355 120.65 250.355 116.85C247.355 113.05 243.555 111.15 238.955 111.15C234.355 111.15 230.555 113.05 227.555 116.85C224.555 120.55 222.305 125.65 220.805 132.15C219.305 138.65 218.555 146.05 218.555 154.35C218.555 162.65 219.305 170.05 220.805 176.55C222.305 183.05 224.555 188.15 227.555 191.85C230.655 195.55 234.455 197.4 238.955 197.4ZM299.724 213C297.524 213 295.674 212.25 294.174 210.75C292.774 209.25 292.074 207.45 292.074 205.35C292.074 203.15 292.774 201.35 294.174 199.95L336.774 150.15C339.774 146.65 342.074 143.35 343.674 140.25C345.374 137.15 346.224 134.2 346.224 131.4C346.224 127 345.474 123.2 343.974 120C342.474 116.8 340.324 114.35 337.524 112.65C334.724 110.85 331.374 109.95 327.474 109.95C323.674 109.95 320.224 110.95 317.124 112.95C314.124 114.85 311.724 117.45 309.924 120.75C308.224 123.95 307.374 127.5 307.374 131.4C307.374 133.4 306.624 135.15 305.124 136.65C303.724 138.15 301.924 138.9 299.724 138.9C297.624 138.9 295.824 138.15 294.324 136.65C292.824 135.15 292.074 133.4 292.074 131.4C292.074 124.6 293.624 118.55 296.724 113.25C299.824 107.85 304.024 103.6 309.324 100.5C314.724 97.4 320.774 95.85 327.474 95.85C334.274 95.85 340.174 97.3 345.174 100.2C350.174 103.1 354.024 107.2 356.724 112.5C359.524 117.8 360.924 124.1 360.924 131.4C360.924 134.6 360.224 137.85 358.824 141.15C357.524 144.45 355.824 147.6 353.724 150.6C351.724 153.6 349.674 156.3 347.574 158.7L313.224 197.7H355.224C357.424 197.7 359.274 198.5 360.774 200.1C362.274 201.6 363.024 203.35 363.024 205.35C363.024 207.45 362.274 209.25 360.774 210.75C359.274 212.25 357.424 213 355.224 213H299.724Z" fill="white"/>
</svg>
