<svg width="59" height="59" viewBox="0 0 59 59" fill="none" xmlns="http://www.w3.org/2000/svg">
<path d="M0 21.9982V21.3299C0 13.275 5.82164 6.40472 13.759 5.08183C18.91 4.2072 24.3605 5.91958 28.1172 9.68199L29.5 11.0625L30.7791 9.68199C34.6395 5.91958 39.9863 4.2072 45.241 5.08183C53.1807 6.40472 59 13.275 59 21.3299V21.9982C59 26.7805 57.018 31.3553 53.5148 34.6164L32.692 54.0564C31.8277 54.8631 30.6869 55.3125 29.5 55.3125C28.3131 55.3125 27.1723 54.8631 26.308 54.0564L5.484 34.6164C1.98549 31.3553 3.45703e-05 26.7805 3.45703e-05 21.9982H0Z" fill="#E63946"/>
<g clip-path="url(#clip0_2_9)">
<path d="M44.4214 19.9476H35.929L34.9736 18.0644C34.2571 16.6289 32.7842 15.7333 31.1786 15.7333H25.1941V24.1619C25.1941 28.8108 21.5052 32.5905 16.7017 32.5905C16.1312 32.5905 15.4544 32.5115 14.8175 32.3534L12.4556 36.8048L29.5597 45.2333V36.8048H35.929C41.794 36.8048 46.5445 32.09 46.5445 26.2691V22.0548C46.5445 20.8958 45.5891 19.9476 44.4214 19.9476ZM29.5597 24.1619C28.392 24.1619 27.3172 23.2137 27.3172 22.0548C27.3172 20.8958 28.392 19.9476 29.5597 19.9476C30.7274 19.9476 31.6828 20.8958 31.6828 22.0548C31.6828 23.2137 30.7274 24.1619 29.5597 24.1619Z" fill="white"/>
<path d="M12.4556 17.8405V24.1619C12.4556 26.4929 14.4725 28.3762 16.7017 28.3762C19.1698 28.3762 20.9479 26.4929 20.9479 24.1619V15.7333H14.5787C13.5304 15.7333 12.4556 16.6816 12.4556 17.8405Z" fill="white"/>
</g>
<defs>
<clipPath id="clip0_2_9">
<rect width="34.0889" height="29.5" fill="white" transform="translate(12.4556 15.7333)"/>
</clipPath>
</defs>
</svg>
