<svg width="75" height="75" viewBox="0 0 75 75" fill="none" xmlns="http://www.w3.org/2000/svg">
<circle cx="37.5" cy="37.5" r="37.5" fill="#F1FAEE"/>
<g clip-path="url(#clip0_2_66)">
<path d="M37.1849 61.5284C36.0945 61.5284 35.0464 61.1155 34.2525 60.3745L15.122 42.5154C11.908 39.5195 10.084 35.3168 10.084 30.9235V30.3095C10.084 22.9097 15.4322 16.5981 22.724 15.3818C27.4561 14.5793 32.4634 16.1535 35.9145 19.6089L37.1849 20.8771V61.5284Z" fill="#E63946"/>
<path opacity="0.4" d="M37.1849 61.5284V20.8771L38.3599 19.6089C41.9063 16.1525 46.8184 14.5793 51.6457 15.3828C58.9396 16.5981 64.2857 22.9097 64.2857 30.3095V30.9235C64.2857 35.3168 62.4649 39.5195 59.2467 42.5154L40.1173 60.3745C39.3233 61.1155 38.2753 61.5284 37.1849 61.5284Z" fill="#E63946"/>
</g>
<defs>
<clipPath id="clip0_2_66">
<rect width="54.2017" height="54.2017" fill="white" transform="translate(10.084 10.7143)"/>
</clipPath>
</defs>
</svg>
